<svg width="34" height="34" viewBox="0 0 34 34" fill="none" xmlns="http://www.w3.org/2000/svg">
<path d="M25.8261 11.6665H8.31813C8.11073 11.6665 7.91183 11.7489 7.76518 11.8955C7.61852 12.0422 7.53613 12.2411 7.53613 12.4485C7.53613 12.6559 7.61852 12.8548 7.76518 13.0015C7.91183 13.1481 8.11073 13.2305 8.31813 13.2305H25.8261C26.0335 13.2305 26.2324 13.1481 26.3791 13.0015C26.5257 12.8548 26.6081 12.6559 26.6081 12.4485C26.6081 12.2411 26.5257 12.0422 26.3791 11.8955C26.2324 11.7489 26.0335 11.6665 25.8261 11.6665Z" fill="#FFCC01"/>
<path d="M12.3826 9.47782H21.1366C21.344 9.47782 21.5429 9.39543 21.6895 9.24878C21.8362 9.10213 21.9186 8.90322 21.9186 8.69582C21.9186 8.48842 21.8362 8.28952 21.6895 8.14286C21.5429 7.99621 21.344 7.91382 21.1366 7.91382H12.3826C12.1752 7.91382 11.9763 7.99621 11.8296 8.14286C11.683 8.28952 11.6006 8.48842 11.6006 8.69582C11.6006 8.90322 11.683 9.10213 11.8296 9.24878C11.9763 9.39543 12.1752 9.47782 12.3826 9.47782Z" fill="#FFCC01"/>
<path d="M13.6338 17.6064H9.25563C9.04823 17.6064 8.84933 17.6888 8.70267 17.8355C8.55602 17.9821 8.47363 18.181 8.47363 18.3884C8.47363 18.5958 8.55602 18.7947 8.70267 18.9414C8.84933 19.0881 9.04823 19.1704 9.25563 19.1704H13.6338C13.8412 19.1704 14.0401 19.0881 14.1868 18.9414C14.3334 18.7947 14.4158 18.5958 14.4158 18.3884C14.4158 18.181 14.3334 17.9821 14.1868 17.8355C14.0401 17.6888 13.8412 17.6064 13.6338 17.6064Z" fill="#FFCC01"/>
<path d="M27.3758 2.59961H6.7687C5.89424 2.60033 5.0558 2.94803 4.43746 3.56637C3.81912 4.18471 3.47142 5.02315 3.4707 5.89761V22.1258C3.47142 23.0003 3.81912 23.8387 4.43746 24.457C5.0558 25.0754 5.89424 25.4231 6.7687 25.4238H17.8527V29.0179C17.8527 29.0244 17.8527 29.0302 17.8527 29.0363C17.854 29.0654 17.8569 29.0943 17.8615 29.123C17.8646 29.1458 17.8666 29.1686 17.8714 29.191C17.8762 29.2134 17.886 29.2393 17.8938 29.2631C17.9017 29.2869 17.9098 29.3134 17.9204 29.3375C17.9309 29.3617 17.9414 29.3763 17.952 29.396C17.9658 29.422 17.9812 29.4472 17.9979 29.4715C18.0013 29.4766 18.0037 29.4824 18.0074 29.4875C18.0283 29.5155 18.051 29.5421 18.0754 29.567L18.0883 29.5789C18.1183 29.6082 18.1507 29.635 18.1852 29.6588C18.19 29.6622 18.1944 29.666 18.1995 29.6694C18.2362 29.6933 18.2747 29.7143 18.3148 29.7319L18.3416 29.7428C18.3821 29.7592 18.4238 29.7723 18.4664 29.7819L18.4888 29.7857C18.5356 29.7947 18.583 29.7994 18.6306 29.7999C18.6785 29.7996 18.7261 29.7948 18.7731 29.7857C18.788 29.7829 18.8023 29.7785 18.8169 29.7751C18.8484 29.7675 18.8792 29.7578 18.9094 29.7462C18.9254 29.7401 18.941 29.7336 18.9567 29.7265C18.9854 29.7134 19.0132 29.6986 19.04 29.682C19.0553 29.6728 19.0706 29.6639 19.0852 29.6537C19.091 29.6493 19.0974 29.6466 19.1032 29.6422L21.1364 28.118L23.1686 29.6418C23.1744 29.6463 23.1808 29.649 23.1866 29.6534C23.2012 29.6636 23.2165 29.6724 23.2318 29.682C23.2574 29.6977 23.2839 29.712 23.3111 29.7248C23.3267 29.7319 23.3423 29.7384 23.3583 29.7445C23.3885 29.7561 23.4194 29.7658 23.4508 29.7734C23.4654 29.7768 23.4797 29.7812 23.4947 29.784C23.5416 29.7931 23.5893 29.7979 23.6371 29.7982C23.6847 29.7977 23.7322 29.793 23.7789 29.784L23.8013 29.7802C23.8439 29.7706 23.8856 29.7576 23.9261 29.7415L23.953 29.7302C23.993 29.7126 24.0316 29.6916 24.0682 29.6677C24.0733 29.6643 24.0778 29.6605 24.0825 29.6571C24.1174 29.6342 24.1502 29.6084 24.1808 29.58L24.1937 29.5681C24.2181 29.5431 24.2409 29.5165 24.2617 29.4885C24.2658 29.4834 24.2678 29.4776 24.2712 29.4725C24.288 29.4483 24.3033 29.4231 24.3171 29.397C24.3277 29.3773 24.3399 29.3586 24.3487 29.3386C24.3576 29.3185 24.3668 29.2893 24.3753 29.2641C24.3838 29.2389 24.3919 29.2165 24.3977 29.192C24.4035 29.1675 24.4045 29.1471 24.4076 29.124C24.4122 29.0953 24.4151 29.0664 24.4164 29.0373C24.4164 29.0312 24.4181 29.0254 24.4181 29.019V25.4228H27.3761C28.2506 25.4222 29.0891 25.0745 29.7074 24.4561C30.3258 23.8378 30.6735 22.9993 30.6741 22.1248V5.89659C30.6732 5.02222 30.3254 4.18393 29.707 3.56579C29.0886 2.94764 28.2501 2.60015 27.3758 2.59961ZM21.6053 26.5169C21.5937 26.5081 21.5808 26.503 21.5689 26.4948C21.5458 26.4795 21.5223 26.4649 21.4978 26.452C21.4734 26.439 21.4536 26.4305 21.4298 26.4214C21.406 26.4122 21.3819 26.4027 21.3571 26.3952C21.3323 26.3877 21.3098 26.3826 21.2857 26.3782C21.2598 26.373 21.2337 26.3691 21.2075 26.3666C21.1848 26.3646 21.1622 26.3636 21.1395 26.3636C21.111 26.3633 21.0825 26.3645 21.0541 26.3673C21.0334 26.3697 21.0133 26.3727 20.9929 26.3765C20.9638 26.3817 20.935 26.3887 20.9066 26.3972C20.8862 26.4037 20.8665 26.4108 20.8467 26.4186C20.8205 26.4285 20.7949 26.4399 20.7699 26.4526C20.7477 26.4645 20.7261 26.4775 20.7053 26.4917C20.6924 26.5002 20.6784 26.506 20.6659 26.5155L19.417 27.455V23.851C19.9646 24.0781 20.5539 24.1872 21.1465 24.1711C21.7391 24.1551 22.3217 24.0142 22.8561 23.7578V27.455L21.6053 26.5169ZM21.032 22.61C20.5065 22.61 19.9927 22.4541 19.5557 22.1621C19.1186 21.8701 18.778 21.4551 18.5769 20.9695C18.3758 20.4839 18.3231 19.9496 18.4257 19.4341C18.5282 18.9186 18.7813 18.4451 19.153 18.0734C19.5246 17.7018 19.9981 17.4487 20.5136 17.3461C21.0291 17.2436 21.5634 17.2962 22.049 17.4974C22.5346 17.6985 22.9496 18.0391 23.2416 18.4761C23.5336 18.9131 23.6895 19.4269 23.6895 19.9525C23.6887 20.6571 23.4084 21.3325 22.9102 21.8307C22.4121 22.3289 21.7366 22.6092 21.032 22.61ZM29.1087 22.1268C29.1087 22.5867 28.9261 23.0278 28.6009 23.3529C28.2757 23.6781 27.8346 23.8608 27.3747 23.8608H24.4167V22.7653C24.417 22.6825 24.4039 22.6002 24.378 22.5216C24.866 21.8879 25.1639 21.1286 25.237 20.3321C25.3102 19.5356 25.1555 18.7347 24.791 18.0228C24.4266 17.3108 23.8674 16.717 23.1785 16.3106C22.4896 15.9042 21.6995 15.7018 20.9 15.7272C20.1006 15.7525 19.3248 16.0044 18.6631 16.4536C18.0013 16.9027 17.4807 17.5307 17.162 18.2643C16.8434 18.9979 16.7397 19.8069 16.863 20.5972C16.9864 21.3874 17.3317 22.1264 17.8588 22.7279C17.8588 22.7405 17.8551 22.7524 17.8551 22.7653V23.8595H6.77108C6.31134 23.859 5.87055 23.6762 5.54546 23.3511C5.22037 23.026 5.03753 22.5852 5.03708 22.1255V5.89659C5.03753 5.43684 5.22037 4.99605 5.54546 4.67096C5.87055 4.34587 6.31134 4.16304 6.77108 4.16259H27.3758C27.8357 4.16259 28.2767 4.34528 28.6019 4.67047C28.9271 4.99565 29.1098 5.4367 29.1098 5.89659L29.1087 22.1268Z" fill="#FFCC01"/>
</svg>