<svg width="37" height="37" viewBox="0 0 37 37" fill="none" xmlns="http://www.w3.org/2000/svg">
<path d="M33.5583 4.82404H5.83046C5.70589 4.82157 5.58207 4.84396 5.46627 4.88992C5.35046 4.93588 5.24498 5.00448 5.15601 5.0917C5.06704 5.17892 4.99636 5.28302 4.9481 5.39789C4.89985 5.51276 4.875 5.6361 4.875 5.7607C4.875 5.88529 4.89985 6.00863 4.9481 6.12351C4.99636 6.23838 5.06704 6.34247 5.15601 6.42969C5.24498 6.51691 5.35046 6.58551 5.46627 6.63147C5.58207 6.67743 5.70589 6.69983 5.83046 6.69735H8.64246V28.4201C8.64373 29.4155 9.03964 30.3699 9.74341 31.0739C10.4472 31.778 11.4014 32.1743 12.3968 32.1759H27.7404C28.7362 32.1748 29.6909 31.7788 30.395 31.0747C31.0991 30.3705 31.4952 29.4158 31.4962 28.4201V6.69698H33.5583C33.6828 6.69946 33.8066 6.67706 33.9224 6.6311C34.0383 6.58514 34.1437 6.51654 34.2327 6.42932C34.3217 6.3421 34.3924 6.23801 34.4406 6.12314C34.4889 6.00826 34.5137 5.88492 34.5137 5.76033C34.5137 5.63573 34.4889 5.51239 34.4406 5.39752C34.3924 5.28265 34.3217 5.17855 34.2327 5.09133C34.1437 5.00411 34.0383 4.93551 33.9224 4.88955C33.8066 4.84359 33.6828 4.8212 33.5583 4.82367V4.82404ZM29.6226 28.4201C29.6221 28.9192 29.4236 29.3977 29.0708 29.7507C28.7179 30.1037 28.2395 30.3023 27.7404 30.303H12.3968C11.8977 30.3025 11.4191 30.104 11.0661 29.7511C10.7131 29.3981 10.5145 28.9196 10.5139 28.4204V6.69698H29.6226V28.4201Z" fill="#FFCC01"/>
<path d="M20.1864 22.5433C17.7751 22.3213 17.7055 19.9533 17.7055 19.6858C17.708 19.5612 17.6856 19.4374 17.6396 19.3216C17.5937 19.2058 17.5251 19.1003 17.4379 19.0113C17.3506 18.9223 17.2466 18.8517 17.1317 18.8034C17.0168 18.7552 16.8935 18.7303 16.7689 18.7303C16.6443 18.7303 16.5209 18.7552 16.4061 18.8034C16.2912 18.8517 16.1871 18.9223 16.0999 19.0113C16.0127 19.1003 15.9441 19.2058 15.8981 19.3216C15.8521 19.4374 15.8297 19.5612 15.8322 19.6858C15.8322 21.6316 16.9696 23.8205 19.4501 24.3248V25.5458C19.4501 25.7943 19.5488 26.0326 19.7245 26.2083C19.9002 26.384 20.1385 26.4827 20.3869 26.4827C20.6354 26.4827 20.8737 26.384 21.0494 26.2083C21.2251 26.0326 21.3238 25.7943 21.3238 25.5458V24.333C23.0317 23.963 24.0988 22.5385 24.2815 21.1029C24.3925 20.2149 24.2678 18.0289 20.6781 16.856L20.0491 16.6544C18.1473 16.0527 17.9064 15.8774 17.9057 15.0911C17.9057 14.5121 18.4237 13.9008 19.1089 13.6692C19.8034 13.4346 20.1472 13.4701 20.9508 13.8542C21.6812 14.2046 21.9664 15.1122 22.0367 15.383C22.1044 15.6176 22.2609 15.8164 22.4729 15.9373C22.685 16.0582 22.9359 16.0916 23.1721 16.0303C23.4084 15.969 23.6114 15.8179 23.738 15.6092C23.8645 15.4005 23.9046 15.1506 23.8497 14.9128C23.6947 14.3134 23.1793 12.8456 21.76 12.1648C21.565 12.0715 21.3767 11.9883 21.1906 11.9176V10.6004C21.1906 10.3519 21.0919 10.1137 20.9162 9.93797C20.7405 9.76228 20.5022 9.66357 20.2537 9.66357C20.0053 9.66357 19.767 9.76228 19.5913 9.93797C19.4156 10.1137 19.3169 10.3519 19.3169 10.6004V11.6934C19.0431 11.7363 18.7735 11.8032 18.5114 11.8932C17.0484 12.3857 16.0291 13.7018 16.0324 15.0933C16.0353 17.3503 17.7103 17.8791 19.4841 18.4396L20.0968 18.6357C21.6901 19.1563 22.5388 19.9677 22.4238 20.8657C22.3087 21.7637 21.5687 22.6694 20.1864 22.5433Z" fill="#FFCC01"/>
</svg>
