<svg width="32" height="31" viewBox="0 0 32 31" fill="none" xmlns="http://www.w3.org/2000/svg">
<path d="M5.14291 9.33337C4.47722 9.33188 3.82102 9.17542 3.22626 8.8764C2.63151 8.57737 2.11454 8.14398 1.71629 7.61056C1.31804 7.07713 1.04945 6.45831 0.93178 5.80309C0.814113 5.14788 0.850603 4.47427 1.03836 3.8356C1.22612 3.19694 1.55999 2.61075 2.01353 2.12347C2.46708 1.63618 3.02784 1.26118 3.65142 1.02815C4.27499 0.795125 4.94426 0.710475 5.60622 0.780904C6.26817 0.851332 6.90465 1.07491 7.46523 1.43392C7.54084 1.48062 7.60637 1.54193 7.65799 1.61427C7.7096 1.68661 7.74628 1.76851 7.76585 1.85519C7.78543 1.94188 7.78752 2.03159 7.772 2.11909C7.75648 2.20659 7.72367 2.29012 7.67547 2.36478C7.62728 2.43944 7.56467 2.50374 7.49133 2.55391C7.41798 2.60408 7.33536 2.63912 7.24831 2.65697C7.16125 2.67482 7.07151 2.67512 6.98434 2.65787C6.89717 2.64061 6.81431 2.60614 6.74062 2.55647C6.1891 2.20147 5.53506 2.04026 4.88173 2.0983C4.22841 2.15633 3.61302 2.4303 3.13271 2.87696C2.6524 3.32362 2.33453 3.91752 2.22927 4.56492C2.12402 5.21232 2.23738 5.87633 2.55146 6.45214C2.86553 7.02795 3.36244 7.48276 3.96373 7.74477C4.56503 8.00677 5.23645 8.06106 5.87203 7.89905C6.5076 7.73705 7.07112 7.36798 7.47362 6.85011C7.87613 6.33223 8.09469 5.69506 8.09481 5.03916C8.09481 4.86194 8.16521 4.69199 8.29052 4.56668C8.41583 4.44137 8.58578 4.37097 8.763 4.37097C8.94021 4.37097 9.11017 4.44137 9.23548 4.56668C9.36079 4.69199 9.43118 4.86194 9.43118 5.03916C9.43158 6.17715 8.9801 7.26872 8.17597 8.07396C7.37185 8.87919 6.2809 9.33219 5.14291 9.33337Z" fill="#FFCC01"/>
<path d="M5.17688 6.6144L3.23765 4.49847C3.18621 4.4494 3.14538 4.3903 3.11769 4.32481C3.09 4.25933 3.07604 4.18886 3.07668 4.11777C3.07732 4.04667 3.09254 3.97646 3.12139 3.91149C3.15025 3.84651 3.19213 3.78814 3.24445 3.74C3.29676 3.69186 3.3584 3.65496 3.42555 3.63159C3.49269 3.60823 3.56392 3.59888 3.63482 3.60414C3.70572 3.60941 3.77479 3.62916 3.83776 3.66218C3.90072 3.69521 3.95623 3.7408 4.00087 3.79614L5.26448 5.17557L9.34636 1.67724C9.39823 1.63288 9.45833 1.59917 9.52322 1.57804C9.58812 1.5569 9.65654 1.54876 9.72459 1.55406C9.79263 1.55937 9.85897 1.57803 9.9198 1.60898C9.98063 1.63992 10.0348 1.68254 10.0791 1.73441C10.1235 1.78628 10.1572 1.84638 10.1783 1.91127C10.1995 1.97617 10.2076 2.0446 10.2023 2.11264C10.197 2.18068 10.1784 2.24702 10.1474 2.30785C10.1165 2.36868 10.0738 2.42283 10.022 2.46719L5.17688 6.6144Z" fill="#FFCC01"/>
<path d="M30.9765 5.93027H12.6711C12.1217 5.93027 11.6763 5.53084 11.6763 5.03935C11.6763 4.54786 12.1217 4.14844 12.6711 4.14844H30.9765C31.5259 4.14844 31.9713 4.54786 31.9713 5.03935C31.9713 5.53084 31.5259 5.93027 30.9765 5.93027Z" fill="#FFCC01"/>
<path d="M5.14304 19.849C4.4767 19.8486 3.81963 19.6929 3.22394 19.3943C2.62826 19.0957 2.11037 18.6624 1.71134 18.1287C1.31231 17.5951 1.04314 16.9758 0.925165 16.3199C0.807193 15.6641 0.843673 14.9899 1.03171 14.3506C1.21975 13.7113 1.55417 13.1247 2.00844 12.6372C2.46271 12.1497 3.02434 11.7748 3.64876 11.5422C4.27318 11.3096 4.94322 11.2257 5.60571 11.2972C6.2682 11.3687 6.90492 11.5936 7.46535 11.954C7.53916 12.0016 7.60287 12.0632 7.65285 12.1354C7.70283 12.2076 7.7381 12.289 7.75665 12.3748C7.77519 12.4606 7.77665 12.5493 7.76094 12.6357C7.74522 12.7221 7.71265 12.8045 7.66507 12.8783C7.61749 12.9521 7.55584 13.0159 7.48364 13.0658C7.41144 13.1158 7.3301 13.1511 7.24427 13.1696C7.07092 13.2071 6.8898 13.1741 6.74074 13.078C6.18922 12.723 5.53518 12.5618 4.88185 12.6199C4.22853 12.6779 3.61314 12.9519 3.13283 13.3985C2.65252 13.8452 2.33465 14.4391 2.22939 15.0865C2.12414 15.7339 2.2375 16.3979 2.55158 16.9737C2.86565 17.5495 3.36256 18.0043 3.96385 18.2663C4.56515 18.5284 5.23658 18.5826 5.87215 18.4206C6.50773 18.2586 7.07124 17.8896 7.47375 17.3717C7.87625 16.8538 8.09481 16.2166 8.09493 15.5607C8.09493 15.3835 8.16533 15.2136 8.29064 15.0883C8.41595 14.9629 8.58591 14.8925 8.76312 14.8925C8.94034 14.8925 9.11029 14.9629 9.2356 15.0883C9.36091 15.2136 9.43131 15.3835 9.43131 15.5607C9.42974 16.6976 8.97743 17.7874 8.17357 18.5913C7.3697 19.3951 6.27987 19.8474 5.14304 19.849Z" fill="#FFCC01"/>
<path d="M5.24073 17.2119L3.23765 15.0262C3.18621 14.9771 3.14538 14.918 3.11769 14.8525C3.09 14.7871 3.07604 14.7166 3.07668 14.6455C3.07732 14.5744 3.09254 14.5042 3.12139 14.4392C3.15025 14.3742 3.19213 14.3159 3.24445 14.2677C3.29676 14.2196 3.3584 14.1827 3.42555 14.1593C3.49269 14.136 3.56392 14.1266 3.63482 14.1319C3.70572 14.1371 3.77479 14.1569 3.83776 14.1899C3.90072 14.2229 3.95623 14.2685 4.00087 14.3239L5.32536 15.7686L9.58542 12.1218C9.69018 12.0322 9.82623 11.9879 9.96365 11.9986C10.1011 12.0094 10.2286 12.0742 10.3182 12.179C10.4078 12.2837 10.4521 12.4198 10.4414 12.5572C10.4307 12.6946 10.3658 12.8222 10.261 12.9118L5.24073 17.2119Z" fill="#FFCC01"/>
<path d="M26.951 16.4518H12.7721C12.1663 16.4518 11.6763 16.0523 11.6763 15.5608C11.6763 15.0693 12.1663 14.6699 12.7721 14.6699H26.951C27.5568 14.6699 28.0468 15.0679 28.0468 15.5608C28.0468 16.0538 27.5568 16.4518 26.951 16.4518Z" fill="#FFCC01"/>
<path d="M22.7875 26.972H12.8508C12.2019 26.972 11.6763 26.5741 11.6763 26.0811C11.6763 25.5881 12.2019 25.1902 12.8508 25.1902H22.7875C23.4364 25.1902 23.962 25.5896 23.962 26.0811C23.962 26.5726 23.4364 26.972 22.7875 26.972Z" fill="#FFCC01"/>
<path d="M5.1889 30.3812C4.33724 30.3812 3.5047 30.1287 2.79657 29.6555C2.08844 29.1824 1.53651 28.5098 1.2106 27.723C0.884678 26.9362 0.799403 26.0704 0.965555 25.2351C1.13171 24.3998 1.54182 23.6325 2.14404 23.0303C2.74626 22.4281 3.51353 22.0179 4.34883 21.8518C5.18413 21.6856 6.04994 21.7709 6.83677 22.0968C7.62361 22.4227 8.29613 22.9747 8.76929 23.6828C9.24245 24.3909 9.49499 25.2235 9.49499 26.0751C9.49499 27.2172 9.04132 28.3125 8.23377 29.12C7.42622 29.9275 6.33095 30.3812 5.1889 30.3812ZM5.1889 23.1188C4.60123 23.1188 4.02678 23.2931 3.53825 23.6198C3.04972 23.9464 2.66909 24.4107 2.44454 24.9538C2.21999 25.4968 2.16161 26.0943 2.2768 26.6706C2.39199 27.2469 2.67557 27.776 3.09164 28.191C3.5077 28.6061 4.03755 28.8883 4.61411 29.0021C5.19066 29.1158 5.78801 29.0559 6.33052 28.83C6.87303 28.6041 7.33632 28.2223 7.66175 27.733C7.98717 27.2436 8.16009 26.6687 8.15862 26.0811C8.15666 25.2947 7.84291 24.5413 7.28619 23.986C6.72947 23.4306 5.97524 23.1188 5.1889 23.1188Z" fill="#FFCC01"/>
</svg>
