<svg width="30" height="22" viewBox="0 0 30 22" fill="none" xmlns="http://www.w3.org/2000/svg">
<path d="M29.2359 14.5448V16.2991C29.2359 16.5291 29.17 16.759 29.0186 16.9299C27.3925 18.7959 23.2712 19.6632 19.5448 19.9851C19.4922 19.9917 19.4658 19.926 19.5053 19.8931C20.2822 19.1901 20.9603 18.3819 21.5265 17.4949C21.5726 17.4292 21.6384 17.3832 21.7174 17.3701C25.0882 16.9036 27.9652 15.964 29.124 14.512C29.1832 14.5317 29.1766 14.5251 29.2359 14.5448Z" fill="#FFCC01"/>
<path d="M29.2373 9.94022V11.7077C29.2373 11.9376 29.1715 12.1676 29.02 12.3384C27.8745 13.6591 25.4781 14.4804 22.8578 14.96C22.8117 14.9666 22.7788 14.9272 22.792 14.8877C23.029 14.1781 23.2068 13.4423 23.3121 12.6867C23.3253 12.5684 23.4174 12.4764 23.5293 12.4501C26.0904 11.9311 28.1839 11.09 29.1254 9.9008C29.1649 9.85481 29.2373 9.87452 29.2373 9.94022Z" fill="#FFCC01"/>
<path d="M29.2364 4.74925V7.1146C29.2364 7.25258 29.1903 7.39056 29.1048 7.49569C28.1106 8.65865 26.0039 9.47995 23.4363 9.99245C23.4034 9.99902 23.3705 9.97273 23.3639 9.93988C23.3046 9.31569 23.1927 8.71121 23.0479 8.11988C23.0413 8.08702 23.061 8.05417 23.094 8.0476C26.1751 7.41027 27.7551 6.45099 27.7551 5.93193C27.7551 5.30774 25.4443 4.03308 20.9477 3.47459C20.7963 3.45488 20.6514 3.37604 20.5527 3.26434C19.9536 2.56787 19.2821 1.95025 18.5381 1.39834C18.492 1.36549 18.5184 1.29321 18.5776 1.29321C23.1335 1.53632 27.5181 2.51531 29.1048 4.3616C29.1903 4.46672 29.2364 4.6047 29.2364 4.74925Z" fill="#FFCC01"/>
<path d="M11.3952 0.432373C5.5292 0.432373 0.762695 5.18936 0.762695 11.0436C0.762695 16.8913 5.5292 21.6483 11.3952 21.6483C17.2545 21.6483 22.021 16.8913 22.021 11.0436C22.021 5.18936 17.2545 0.432373 11.3952 0.432373ZM11.3952 19.6771C6.62207 19.6771 2.73777 15.8072 2.73777 11.0436C2.73777 6.28005 6.62207 2.4035 11.3952 2.4035C16.1683 2.4035 20.046 6.28005 20.046 11.0436C20.046 15.8072 16.1683 19.6771 11.3952 19.6771Z" fill="#FFCC01"/>
<path d="M12.5227 13.2357C12.2435 13.4432 11.8806 13.5471 11.4342 13.5474C11.1095 13.5474 10.8482 13.4959 10.6485 13.3927C10.4636 13.3024 10.3042 13.1675 10.1846 13.0001C10.0607 12.8147 9.95797 12.6158 9.87841 12.4074C9.81944 12.2382 9.7232 12.0843 9.59679 11.9571C9.48775 11.8555 9.34307 11.8008 9.19401 11.8048C9.01601 11.8007 8.84393 11.8688 8.71696 11.9936C8.59 12.1183 8.51896 12.2891 8.52003 12.467C8.52003 12.7824 8.62558 13.1056 8.83667 13.4367C9.04313 13.7649 9.3256 14.0386 9.66022 14.2347C9.97686 14.4187 10.356 14.536 10.7862 14.5975V16.0081C10.7862 16.3986 11.103 16.7152 11.4938 16.7152C11.8846 16.7152 12.2014 16.3986 12.2014 16.0081V14.5933C12.4976 14.5502 12.7867 14.4675 13.0609 14.3473C13.5067 14.1448 13.8453 13.8647 14.0766 13.5067C14.3092 13.1463 14.4301 12.7252 14.424 12.2963C14.424 11.9217 14.3574 11.605 14.2243 11.3465C14.0928 11.0912 13.9015 10.8715 13.6667 10.706C13.3993 10.5226 13.1074 10.3777 12.7996 10.2755C12.4268 10.1479 12.0477 10.0395 11.6637 9.95105C11.3292 9.86686 11.0893 9.80284 10.9438 9.75901C10.7943 9.71334 10.6499 9.65215 10.5131 9.57642C10.3828 9.50864 10.2687 9.41361 10.1785 9.29781C10.0963 9.18651 10.0535 9.05105 10.0568 8.91277C10.0568 8.67343 10.1761 8.46845 10.4147 8.29785C10.6532 8.12725 10.9664 8.0421 11.3542 8.04242C11.7732 8.04242 12.0774 8.12125 12.2667 8.27893C12.474 8.46008 12.64 8.68367 12.7532 8.93453C12.8288 9.08911 12.9269 9.23162 13.0443 9.35741C13.1343 9.4435 13.2649 9.48655 13.4372 9.48655C13.6193 9.48943 13.793 9.41041 13.9105 9.27132C14.0319 9.13957 14.0995 8.96705 14.0998 8.7879C14.0964 8.578 14.0444 8.37174 13.9479 8.18527C13.8292 7.9577 13.6653 7.7568 13.466 7.59494C13.2208 7.39364 12.9396 7.24067 12.6373 7.14415C12.4946 7.09979 12.3489 7.0658 12.2014 7.04245V5.63758C12.2014 5.24703 11.8846 4.93042 11.4938 4.93042C11.103 4.93042 10.7862 5.24703 10.7862 5.63758V7.02069C10.5049 7.05636 10.2289 7.12626 9.96455 7.22882C9.54173 7.39974 9.21894 7.64366 8.99617 7.96059C8.7732 8.27915 8.65629 8.65981 8.66202 9.04853C8.66202 9.47709 8.76757 9.83579 8.97866 10.1247C9.20077 10.4222 9.4958 10.6576 9.83534 10.8082C10.2661 10.9994 10.7152 11.1462 11.1757 11.2462C11.4981 11.3165 11.8167 11.4028 12.1304 11.5049C12.3501 11.5743 12.5501 11.695 12.714 11.8569C12.8638 12.0107 12.9389 12.2108 12.9393 12.4571C12.9402 12.7687 12.8014 13.0282 12.5227 13.2357Z" fill="#FFCC01"/>
</svg>
