<svg width="35" height="34" viewBox="0 0 35 34" fill="none" xmlns="http://www.w3.org/2000/svg">
<path d="M31.5354 18.6608C31.5354 18.0023 31.349 17.3573 30.9977 16.8003C30.6465 16.2433 30.1448 15.7972 29.5505 15.5134C28.9563 15.2297 28.2939 15.12 27.64 15.1969C26.986 15.2739 26.3672 15.5344 25.8551 15.9484C25.343 16.3623 24.9586 16.9128 24.7462 17.5361C24.5339 18.1594 24.5024 18.8301 24.6553 19.4705C24.8081 20.111 25.1392 20.6951 25.6102 21.1553C26.0812 21.6155 26.6728 21.933 27.3167 22.071C27.0814 27.614 23.1268 28.4579 20.74 28.4579C17.2057 28.4579 14.3236 25.6131 14.2634 22.0924C20.1552 21.4954 21.8818 16.3124 21.8994 16.256C21.9083 16.2282 21.9157 16.1999 21.9215 16.1713C22.3975 13.8682 22.3295 11.4412 22.2704 9.3006C22.2054 6.9546 20.1338 5.5691 17.9065 5.26888V4.70992C17.9021 4.49258 17.8127 4.28563 17.6574 4.13347C17.5021 3.98132 17.2934 3.8961 17.076 3.8961C16.8586 3.8961 16.6499 3.98132 16.4947 4.13347C16.3394 4.28563 16.25 4.49258 16.2456 4.70992V7.36736C16.25 7.5847 16.3394 7.79165 16.4947 7.9438C16.6499 8.09595 16.8586 8.18117 17.076 8.18117C17.2934 8.18117 17.5021 8.09595 17.6574 7.9438C17.8127 7.79165 17.9021 7.5847 17.9065 7.36736V6.95256C19.1713 7.18376 20.5704 7.90456 20.6105 9.3465C20.6697 11.4807 20.7312 13.6866 20.3045 15.7861C20.1376 16.2621 18.5365 20.3883 13.3226 20.4852C8.10429 20.3883 6.50493 16.2492 6.34139 15.7864C5.91571 13.6869 5.97691 11.4807 6.03539 9.3465C6.07619 7.87838 7.52629 7.15758 8.80877 6.94066V7.36736C8.80877 7.47639 8.83024 7.58436 8.87197 7.68509C8.91369 7.78583 8.97485 7.87736 9.05195 7.95445C9.12905 8.03155 9.22058 8.09271 9.32131 8.13444C9.42205 8.17616 9.53001 8.19764 9.63905 8.19764C9.74808 8.19764 9.85605 8.17616 9.95678 8.13444C10.0575 8.09271 10.149 8.03155 10.2261 7.95445C10.3032 7.87736 10.3644 7.78583 10.4061 7.68509C10.4479 7.58436 10.4693 7.47639 10.4693 7.36736V4.70992C10.4693 4.48971 10.3818 4.27853 10.2261 4.12282C10.0704 3.96711 9.85925 3.87964 9.63905 3.87964C9.41884 3.87964 9.20766 3.96711 9.05195 4.12282C8.89624 4.27853 8.80877 4.48971 8.80877 4.70992V5.2597C6.55695 5.5419 4.44283 6.93182 4.37721 9.3006C4.31771 11.4426 4.25039 13.8682 4.72605 16.1713C4.7319 16.1999 4.73927 16.2282 4.74815 16.256C4.76787 16.3175 5.24285 17.7734 6.55831 19.2198C7.66637 20.4376 9.58737 21.869 12.6038 22.1121C12.6735 26.54 16.2962 30.1202 20.74 30.1202C25.7506 30.1202 28.8018 27.1033 28.9803 22.0217C29.7145 21.8169 30.3616 21.3776 30.8229 20.7708C31.2842 20.164 31.5344 19.423 31.5354 18.6608ZM28.0477 20.4876C27.6863 20.4876 27.3332 20.3805 27.0327 20.1797C26.7323 19.979 26.4982 19.6937 26.3599 19.3599C26.2216 19.0261 26.1855 18.6588 26.2559 18.3044C26.3264 17.95 26.5004 17.6245 26.7559 17.369C27.0114 17.1136 27.3369 16.9396 27.6913 16.8691C28.0456 16.7986 28.4129 16.8348 28.7468 16.973C29.0806 17.1113 29.3659 17.3455 29.5666 17.6459C29.7673 17.9463 29.8745 18.2995 29.8745 18.6608C29.8739 19.1451 29.6813 19.6095 29.3388 19.952C28.9963 20.2944 28.532 20.4871 28.0477 20.4876Z" fill="#FFCC01"/>
</svg>
