<?xml version="1.0" encoding="utf-8"?>
<!-- Generator: Adobe Illustrator 22.1.0, SVG Export Plug-In . SVG Version: 6.00 Build 0)  -->
<svg version="1.1" id="Layer_1" xmlns="http://www.w3.org/2000/svg" xmlns:xlink="http://www.w3.org/1999/xlink" x="0px" y="0px"
	 viewBox="0 0 40 40" style="enable-background:new 0 0 40 40;" xml:space="preserve">
<style type="text/css">
	.st0{fill:#BCBCBC;}
</style>
<path class="st0" d="M32.2,4H7.8C5.7,4,4,5.7,4,7.8v24.4C4,34.3,5.7,36,7.8,36h24.4c2.1,0,3.8-1.7,3.8-3.8V7.8C36,5.7,34.3,4,32.2,4
	z M28,8h3c0.6,0,1,0.4,1,1v3c0,0.6-0.4,1-1,1h-3c-0.6,0-1-0.4-1-1V9C27,8.4,27.4,8,28,8z M20,13.9c3.4,0,6.2,2.7,6.2,6.1
	c0,3.4-2.8,6.1-6.2,6.1c-3.4,0-6.2-2.7-6.2-6.1C13.9,16.6,16.6,13.9,20,13.9z M32,33H8c-0.6,0-1-0.4-1-1V17h4
	c-0.5,0.8-0.7,2.1-0.7,3c0,5.4,4.4,9.7,9.7,9.7c5.4,0,9.7-4.4,9.7-9.7c0-0.9-0.1-2.3-0.8-3h4v15C33,32.6,32.6,33,32,33z"/>
</svg>
